{"title":"Hotel Transylwania - 720p.WEB-DL.x264.AC3 - Dubbing PL","uid":8235588,"size":3063213936,"categoryP":"video","categoryS":"hd___movies","magnet":"?xt=urn:btih:8196a4b055acd69a128f2c4eabec632f9eec41b4&amp;dn=Hotel+Transylwania+-+720p.WEB-DL.x264.AC3+-+Dubbing+PL&amp;tr=udp%3A%2F%2Ftracker.openbittorrent.com%3A80&amp;tr=udp%3A%2F%2Fopen.demonii.com%3A1337&amp;tr=udp%3A%2F%2Ftracker.coppersurfer.tk%3A6969&amp;tr=udp%3A%2F%2Fexodus.desync.com%3A6969","seeders":2,"leechers":1,"uploader":"kubus599","files":1,"time":1362788516,"description":"ormat : Matroska\nFormat version : Version 2\nFile size : 2.85 GiB\nDuration : 1h 31mn\nOverall bit rate : 4 464 Kbps\nEncoded date : UTC 2013-01-08 15:44:40\nWriting application : mkvmerge v5.5.0 ('Healer') built on Apr 6 2012 21:43:24\nWriting library : libebml v1.2.3 + libmatroska v1.3.0\n\nVideo\nID : 1\nFormat : AVC\nFormat/Info : Advanced Video Codec\nFormat profile : &lt;a class=&quot;__cf_email__&quot; href=&quot;/cdn-cgi/l/email-protection&quot; data-cfemail=&quot;652d0c020d2529564b54&quot;&gt;[email&amp;#160;protected]&lt;/a&gt;&lt;script cf-hash='f9e31' type=&quot;text/javascript&quot;&gt;\n/* &lt;![CDATA[ */!function(){try{var t=&quot;currentScript&quot;in document?document.currentScript:function(){for(var t=document.getElementsByTagName(&quot;script&quot;),e=t.length;e--;)if(t[e].getAttribute(&quot;cf-hash&quot;))return t[e]}();if(t&amp;&amp;t.previousSibling){var e,r,n,i,c=t.previousSibling,a=c.getAttribute(&quot;data-cfemail&quot;);if(a){for(e=&quot;&quot;,r=parseInt(a.substr(0,2),16),n=2;a.length-n;n+=2)i=parseInt(a.substr(n,2),16)^r,e+=String.fromCharCode(i);e=document.createTextNode(e),c.parentNode.replaceChild(e,c)}}}catch(u){}}();/* ]]&gt; */&lt;/script&gt;\nFormat settings, CABAC : No\nFormat settings, ReFrames : 2 frames\nMuxing mode : Header stripping\nCodec ID : V_MPEG4/ISO/AVC\nDuration : 1h 31mn\nBit rate : 4 119 Kbps\nWidth : 1 280 pixels\nHeight : 688 pixels\nDisplay aspect ratio : 1.85:1\nFrame rate mode : Constant\nFrame rate : 23.976 fps\nColor space : YUV\nChroma subsampling : 4:2:0\nBit depth : 8 bits\nScan type : Progressive\nBits/(Pixel*Frame) : 0.195\nStream size : 2.63 GiB (92%)\nLanguage : English\nDefault : Yes\nForced : Yes\nColor primaries : BT.709\nTransfer characteristics : BT.709\nMatrix coefficients : BT.709\n\nAudio\nID : 2\nFormat : AC-3\nFormat/Info : Audio Coding 3\nMode extension : CM (complete main)\nFormat settings, Endianness : Big\nMuxing mode : Header stripping\nCodec ID : A_AC3\nDuration : 1h 31mn\nBit rate mode : Constant\nBit rate : 256 Kbps\nChannel(s) : 2 channels\nChannel positions : Front: L R\nSampling rate : 48.0 KHz\nBit depth : 16 bits\nCompression mode : Lossy\nStream size : 168 MiB (6%)\nLanguage : Polish\nDefault : Yes\nForced : No\n\n &lt;a href=&quot;\nhttp://bayimg.com/iaKBKaAEh&quot; rel=&quot;nofollow&quot; target=&quot;_NEW&quot;&gt;\nhttp://bayimg.com/iaKBKaAEh&lt;/a&gt;\n\n\nJest Dubbing polski. SeedujÄ™ miÄ™dzy godzinami 9-23. okoÅ‚o 500-600kb/s ","torrent":{"xt":"urn:btih:8196a4b055acd69a128f2c4eabec632f9eec41b4","amp;dn":"Hotel+Transylwania+-+720p.WEB-DL.x264.AC3+-+Dubbing+PL","amp;tr":["udp%3A%2F%2Ftracker.openbittorrent.com%3A80","udp%3A%2F%2Fopen.demonii.com%3A1337","udp%3A%2F%2Ftracker.coppersurfer.tk%3A6969","udp%3A%2F%2Fexodus.desync.com%3A6969"],"infoHash":"8196a4b055acd69a128f2c4eabec632f9eec41b4","infoHashBuffer":{"type":"Buffer","data":[129,150,164,176,85,172,214,154,18,143,44,78,171,236,99,47,158,236,65,180]},"announce":[],"urlList":[]}}